<?xml version="1.0" encoding="utf-8"?>
<!-- Generator: Adobe Illustrator 21.0.1, SVG Export Plug-In . SVG Version: 6.00 Build 0)  -->
<svg version="1.1" id="Capa_1" xmlns="http://www.w3.org/2000/svg" xmlns:xlink="http://www.w3.org/1999/xlink" x="0px" y="0px"
	 viewBox="0 0 963 963" style="enable-background:new 0 0 963 963;" xml:space="preserve">
<style type="text/css">
	.st0{fill:#006363;}
</style>
<g>
	<path class="st0" d="M481.5,963C747.4,963,963,747.4,963,481.5S747.4,0,481.5,0S0,215.6,0,481.5S215.6,963,481.5,963z M543.3,271.4
		l233.2,213.4c19.4,17.8,29.2,42.1,29.2,66.4c0,21.7-7.8,43.5-23.6,60.7c-33.6,36.7-90.5,39.2-127.2,5.6L482.6,459.8L305.3,622.4
		c-36.6,33.6-93.6,31.1-127.2-5.5s-31.1-93.6,5.5-127.2l238.1-218.3C456.2,239.9,508.9,239.9,543.3,271.4z"/>
</g>
</svg>
